<svg id="svgcontent_0" viewBox="0 0 161 33" width="161" height="33" class="WaveDrom">
    <style>
        .pinname {
            font-size: 12px;
            font-style: normal;
            font-variant: normal;
            font-weight: 500;
            font-stretch: normal;
            text-align: center;
            text-anchor: end;
            font-family: Helvetica
        }

        .wirename {
            font-size: 12px;
            font-style: normal;
            font-variant: normal;
            font-weight: 500;
            font-stretch: normal;
            text-align: center;
            text-anchor: start;
            font-family: Helvetica
        }

        .wirename:hover {
            fill: blue
        }

        .gate {
            color: #000;
            fill: #ffc;
            fill-opacity: 1;
            stroke: #000;
            stroke-width: 1;
            stroke-opacity: 1
        }

        .gate:hover {
            fill: red !important;
        }

        .wire {
            fill: none;
            stroke: #000;
            stroke-width: 1;
            stroke-opacity: 1
        }

        .grid {
            fill: #fff;
            fill-opacity: 1;
            stroke: none
        }
    </style>
    <g transform="translate(0.5, 0.5)">
        <g>
            <rect height="1" width="1" x="-0.5" y="-0.5" class="grid" />
            <rect height="1" width="1" x="-0.5" y="7.5" class="grid" />
            <rect height="1" width="1" x="-0.5" y="15.5" class="grid" />
            <rect height="1" width="1" x="-0.5" y="23.5" class="grid" />
            <rect height="1" width="1" x="-0.5" y="31.5" class="grid" />
            <rect height="1" width="1" x="-0.5" y="39.5" class="grid" />
            <rect height="1" width="1" x="7.5" y="-0.5" class="grid" />
            <rect height="1" width="1" x="7.5" y="7.5" class="grid" />
            <rect height="1" width="1" x="7.5" y="15.5" class="grid" />
            <rect height="1" width="1" x="7.5" y="23.5" class="grid" />
            <rect height="1" width="1" x="7.5" y="31.5" class="grid" />
            <rect height="1" width="1" x="7.5" y="39.5" class="grid" />
            <rect height="1" width="1" x="15.5" y="-0.5" class="grid" />
            <rect height="1" width="1" x="15.5" y="7.5" class="grid" />
            <rect height="1" width="1" x="15.5" y="15.5" class="grid" />
            <rect height="1" width="1" x="15.5" y="23.5" class="grid" />
            <rect height="1" width="1" x="15.5" y="31.5" class="grid" />
            <rect height="1" width="1" x="15.5" y="39.5" class="grid" />
            <rect height="1" width="1" x="23.5" y="-0.5" class="grid" />
            <rect height="1" width="1" x="23.5" y="7.5" class="grid" />
            <rect height="1" width="1" x="23.5" y="15.5" class="grid" />
            <rect height="1" width="1" x="23.5" y="23.5" class="grid" />
            <rect height="1" width="1" x="23.5" y="31.5" class="grid" />
            <rect height="1" width="1" x="23.5" y="39.5" class="grid" />
            <rect height="1" width="1" x="31.5" y="-0.5" class="grid" />
            <rect height="1" width="1" x="31.5" y="7.5" class="grid" />
            <rect height="1" width="1" x="31.5" y="15.5" class="grid" />
            <rect height="1" width="1" x="31.5" y="23.5" class="grid" />
            <rect height="1" width="1" x="31.5" y="31.5" class="grid" />
            <rect height="1" width="1" x="31.5" y="39.5" class="grid" />
            <rect height="1" width="1" x="39.5" y="-0.5" class="grid" />
            <rect height="1" width="1" x="39.5" y="7.5" class="grid" />
            <rect height="1" width="1" x="39.5" y="15.5" class="grid" />
            <rect height="1" width="1" x="39.5" y="23.5" class="grid" />
            <rect height="1" width="1" x="39.5" y="31.5" class="grid" />
            <rect height="1" width="1" x="39.5" y="39.5" class="grid" />
            <rect height="1" width="1" x="47.5" y="-0.5" class="grid" />
            <rect height="1" width="1" x="47.5" y="7.5" class="grid" />
            <rect height="1" width="1" x="47.5" y="15.5" class="grid" />
            <rect height="1" width="1" x="47.5" y="23.5" class="grid" />
            <rect height="1" width="1" x="47.5" y="31.5" class="grid" />
            <rect height="1" width="1" x="47.5" y="39.5" class="grid" />
            <rect height="1" width="1" x="55.5" y="-0.5" class="grid" />
            <rect height="1" width="1" x="55.5" y="7.5" class="grid" />
            <rect height="1" width="1" x="55.5" y="15.5" class="grid" />
            <rect height="1" width="1" x="55.5" y="23.5" class="grid" />
            <rect height="1" width="1" x="55.5" y="31.5" class="grid" />
            <rect height="1" width="1" x="55.5" y="39.5" class="grid" />
            <rect height="1" width="1" x="63.5" y="-0.5" class="grid" />
            <rect height="1" width="1" x="63.5" y="7.5" class="grid" />
            <rect height="1" width="1" x="63.5" y="15.5" class="grid" />
            <rect height="1" width="1" x="63.5" y="23.5" class="grid" />
            <rect height="1" width="1" x="63.5" y="31.5" class="grid" />
            <rect height="1" width="1" x="63.5" y="39.5" class="grid" />
            <rect height="1" width="1" x="71.5" y="-0.5" class="grid" />
            <rect height="1" width="1" x="71.5" y="7.5" class="grid" />
            <rect height="1" width="1" x="71.5" y="15.5" class="grid" />
            <rect height="1" width="1" x="71.5" y="23.5" class="grid" />
            <rect height="1" width="1" x="71.5" y="31.5" class="grid" />
            <rect height="1" width="1" x="71.5" y="39.5" class="grid" />
            <rect height="1" width="1" x="79.5" y="-0.5" class="grid" />
            <rect height="1" width="1" x="79.5" y="7.5" class="grid" />
            <rect height="1" width="1" x="79.5" y="15.5" class="grid" />
            <rect height="1" width="1" x="79.5" y="23.5" class="grid" />
            <rect height="1" width="1" x="79.5" y="31.5" class="grid" />
            <rect height="1" width="1" x="79.5" y="39.5" class="grid" />
            <rect height="1" width="1" x="87.5" y="-0.5" class="grid" />
            <rect height="1" width="1" x="87.5" y="7.5" class="grid" />
            <rect height="1" width="1" x="87.5" y="15.5" class="grid" />
            <rect height="1" width="1" x="87.5" y="23.5" class="grid" />
            <rect height="1" width="1" x="87.5" y="31.5" class="grid" />
            <rect height="1" width="1" x="87.5" y="39.5" class="grid" />
            <rect height="1" width="1" x="95.5" y="-0.5" class="grid" />
            <rect height="1" width="1" x="95.5" y="7.5" class="grid" />
            <rect height="1" width="1" x="95.5" y="15.5" class="grid" />
            <rect height="1" width="1" x="95.5" y="23.5" class="grid" />
            <rect height="1" width="1" x="95.5" y="31.5" class="grid" />
            <rect height="1" width="1" x="95.5" y="39.5" class="grid" />
            <rect height="1" width="1" x="103.5" y="-0.5" class="grid" />
            <rect height="1" width="1" x="103.5" y="7.5" class="grid" />
            <rect height="1" width="1" x="103.5" y="15.5" class="grid" />
            <rect height="1" width="1" x="103.5" y="23.5" class="grid" />
            <rect height="1" width="1" x="103.5" y="31.5" class="grid" />
            <rect height="1" width="1" x="103.5" y="39.5" class="grid" />
            <rect height="1" width="1" x="111.5" y="-0.5" class="grid" />
            <rect height="1" width="1" x="111.5" y="7.5" class="grid" />
            <rect height="1" width="1" x="111.5" y="15.5" class="grid" />
            <rect height="1" width="1" x="111.5" y="23.5" class="grid" />
            <rect height="1" width="1" x="111.5" y="31.5" class="grid" />
            <rect height="1" width="1" x="111.5" y="39.5" class="grid" />
            <rect height="1" width="1" x="119.5" y="-0.5" class="grid" />
            <rect height="1" width="1" x="119.5" y="7.5" class="grid" />
            <rect height="1" width="1" x="119.5" y="15.5" class="grid" />
            <rect height="1" width="1" x="119.5" y="23.5" class="grid" />
            <rect height="1" width="1" x="119.5" y="31.5" class="grid" />
            <rect height="1" width="1" x="119.5" y="39.5" class="grid" />
            <rect height="1" width="1" x="127.5" y="-0.5" class="grid" />
            <rect height="1" width="1" x="127.5" y="7.5" class="grid" />
            <rect height="1" width="1" x="127.5" y="15.5" class="grid" />
            <rect height="1" width="1" x="127.5" y="23.5" class="grid" />
            <rect height="1" width="1" x="127.5" y="31.5" class="grid" />
            <rect height="1" width="1" x="127.5" y="39.5" class="grid" />
            <rect height="1" width="1" x="135.5" y="-0.5" class="grid" />
            <rect height="1" width="1" x="135.5" y="7.5" class="grid" />
            <rect height="1" width="1" x="135.5" y="15.5" class="grid" />
            <rect height="1" width="1" x="135.5" y="23.5" class="grid" />
            <rect height="1" width="1" x="135.5" y="31.5" class="grid" />
            <rect height="1" width="1" x="135.5" y="39.5" class="grid" />
            <rect height="1" width="1" x="143.5" y="-0.5" class="grid" />
            <rect height="1" width="1" x="143.5" y="7.5" class="grid" />
            <rect height="1" width="1" x="143.5" y="15.5" class="grid" />
            <rect height="1" width="1" x="143.5" y="23.5" class="grid" />
            <rect height="1" width="1" x="143.5" y="31.5" class="grid" />
            <rect height="1" width="1" x="143.5" y="39.5" class="grid" />
            <rect height="1" width="1" x="151.5" y="-0.5" class="grid" />
            <rect height="1" width="1" x="151.5" y="7.5" class="grid" />
            <rect height="1" width="1" x="151.5" y="15.5" class="grid" />
            <rect height="1" width="1" x="151.5" y="23.5" class="grid" />
            <rect height="1" width="1" x="151.5" y="31.5" class="grid" />
            <rect height="1" width="1" x="151.5" y="39.5" class="grid" />
            <rect height="1" width="1" x="159.5" y="-0.5" class="grid" />
            <rect height="1" width="1" x="159.5" y="7.5" class="grid" />
            <rect height="1" width="1" x="159.5" y="15.5" class="grid" />
            <rect height="1" width="1" x="159.5" y="23.5" class="grid" />
            <rect height="1" width="1" x="159.5" y="31.5" class="grid" />
            <rect height="1" width="1" x="159.5" y="39.5" class="grid" />
        </g>
        <g>
            <g>
                <g>
                    <g transform="translate(16,0)">
                        <path d="M  96,16 96,16" class="wire" />
                    </g>
                    <g>
                        <path d="m  96,16 16,0" class="wire" />
                    </g>
                    <g transform="translate(128,16)">
                        <title>
                            <tspan>o</tspan>
                        </title><text x="-14" y="4" class="wirename">
                            <tspan>o</tspan>
                        </text>
                    </g>
                </g>
                <g>
                    <g>
                        <g transform="translate(16,0)">
                            <path d="M  64,16 64,16" class="wire" />
                        </g>
                        <g>
                            <path d="m  64,16 16,0" class="wire" />
                        </g>
                        <g transform="translate(96,16)">
                            <title>
                                <tspan>~</tspan>
                            </title>
                            <path class="gate"
                                d="M -11,-6 -11,6 0,0 z m -5,6 5,0 M 4,0 C 4,1.1 3.1,2 2,2 0.9,2 0,1.1 0,0 c 0,-1.1 0.9,-2 2,-2 1.1,0 2,0.9 2,2 z" />
                        </g>
                    </g>
                    <g>
                        <g transform="translate(64,16)">
                            <title>
                                <tspan>i</tspan>
                            </title>
                            <path d="M 2,0 a 2,2 0 1 1 -4,0 2,2 0 1 1 4,0 z" /><text x="-4" y="4" class="pinname">
                                <tspan>i</tspan>
                            </text>
                        </g>
                    </g>
                </g>
            </g>
        </g>
    </g>
</svg>